<svg xmlns="http://www.w3.org/2000/svg" width="1113.873" height="1208.705" viewBox="0 0 1113.873 1208.705">
  <g id="Group_4" data-name="Group 4" transform="translate(-2308 -993)">
    <path id="Path_352" data-name="Path 352" d="M260.182-113.568c24.1,0,65.855.632,97.982,12.43C393.118-88.3,417.458-63.189,417.458-38.06c0,11.468,4.662,38.079,10.094,88.505,3.406,31.623-8.669,167.946-45.526,172.031-5.044,2.867-8.232-5.01-20.1-13.312-15.667,29.591-87.553,66.36-133.8,69.734-67.89,4.954-110.651-10.818-138.057-34.836-3.81,0-29.429,9.357-49.888,3.193C34.366,245.5,7.836,216.672,5.227,190.039c-14.81,7.44-38.409,10.9-46.13-2.922-20.932-37.462-10.965-91.151-12.43-107.536C-55.91,50.752-51.868-23.942-40.9-59.117c5.128-16.45,16.359-4.758,20.8-10.945C-8.769-85.86-7.326-36.808-2.286-32.448,18.591-14.385,38.471,5,122.646-76.4,187.127-128.984,230.822-113.568,260.182-113.568Z" transform="translate(2696 1502)" fill="#d8ccd2"/>
    <path id="Path_351" data-name="Path 351" d="M91.5,0c50.534,0,59.747,42.7,59.747,90.745S142.034,174,91.5,174,0,135.049,0,87,40.966,0,91.5,0Z" transform="translate(2510 1415)" fill="#fbc6ae"/>
    <path id="Path_364" data-name="Path 364" d="M352.954,84.586s-59.619,126.57-188.7,128.566S0,87,0,87s57.333,17.588,76.064,11.082c24.535,21.621,78.042,34.543,119.426,34.26C283.728,131.738,352.954,84.586,352.954,84.586Z" transform="translate(2707.753 1646)" fill="#fbc6ae"/>
    <path id="Path_366" data-name="Path 366" d="M285.026,135.273l-7.145,52.942L53.669,189.705S65,74.287,83.73,67.781c10.722,9.448,48.172,29.67,89.746,42.58C226.655,126.876,285.026,135.273,285.026,135.273Z" transform="translate(2260.753 2012)" fill="#fbc6ae"/>
    <path id="Path_368" data-name="Path 368" d="M53.669,135.273l7.145,52.942,224.212,1.489S273.7,74.287,254.965,67.781c-10.722,9.448-48.172,29.67-89.746,42.58C112.039,126.876,53.669,135.273,53.669,135.273Z" transform="translate(3126.69 2012)" fill="#fbc6ae"/>
    <path id="Path_367" data-name="Path 367" d="M285.026,135.273l-2.653,20.172s-63.4-6.559-114.953-23.047A408.067,408.067,0,0,1,76.164,89.492S65,74.287,83.73,67.781c10.722,9.448,48.172,29.67,89.746,42.58C226.655,126.876,285.026,135.273,285.026,135.273Z" transform="translate(2260.753 2012)" fill="#f8a998"/>
    <path id="Path_369" data-name="Path 369" d="M72.862,135.273l2.653,20.172s63.4-6.559,114.953-23.047a408.067,408.067,0,0,0,91.255-42.906s11.165-15.205-7.565-21.711c-10.722,9.448-48.172,29.67-89.746,42.58C131.232,126.876,72.862,135.273,72.862,135.273Z" transform="translate(3105.497 2012)" fill="#f8a998"/>
    <path id="Path_365" data-name="Path 365" d="M352.954,84.586s3.2,20.713-27.48,39.523c-11.081,6.794-72.008,29.7-175.609,27.089C89.1,148.681,72.724,120.841,68.81,119.62c-19.4,13.591-45.627,2.448-57.018-3.586C-25.44,96.311,0,87,0,87s57.333,17.588,76.064,11.082c24.535,21.621,78.042,34.543,119.426,34.26C283.728,131.738,352.954,84.586,352.954,84.586Z" transform="translate(2707.753 1646)" fill="#f8a998"/>
    <path id="Path_358" data-name="Path 358" d="M157.283-24.3c0,17.49,189.234-29.684,184.2,2.9-.955,6.181,27.755,42.786,47.947,90.146,19.047,44.674,52.037,139.4,34.293,159.182-5.92,6.6-39.729-35.2-52.877-37.268-40.748-6.4-108.108-24.754-169.734-6.244-51.486,15.464-91.758,55.716-120.059,77.377-11.774,9.012-27.678,10.041-31.193,11.949-11.03,5.985-31.629-5.006-42.994-20.393C-4.242,238.316-6.1,218.869-9.432,216.523-40.616,194.583-4.377,94.239-4.377,60.076c0-9.262,28.09-9.539,35.527-22.832C37.506,25.883,22.361,1.5,35.133-7.367c14.972-10.4,50.387,11.7,67.834,5.76C140.025-14.221,157.283-44.914,157.283-24.3Z" transform="translate(2685.975 1211.723)" fill="#fbc6ae"/>
    <path id="Path_359" data-name="Path 359" d="M157.283-24.3c0,17.49,189.234-29.684,184.2,2.9-.279,1.8,47.575,3.157,5.839,16.412C339.168-2.4,292.336,15.591,254.907,15.2c-51.093-.54-93.577-16.8-93.577-16.8s-30.589,31.686-105.8,19.2c-1.946.775-4.375,27.818-15.962,46.314C28.087,82.23,2.489,83.154.631,84.039c-39.805,18.968-5.008-14.571-5.008-23.963,0-9.262,28.09-9.539,35.527-22.832C37.506,25.883,22.361,1.5,35.133-7.367c14.972-10.4,50.387,11.7,67.834,5.76C140.025-14.221,157.283-44.914,157.283-24.3Z" transform="translate(2685.975 1211.723)" fill="#f8a998"/>
    <path id="Path_3" data-name="Path 3" d="M554.5-847.1c-8.9,2.3-17.5,9.8-20.5,17.9-8.7,23.1,13.7,45.7,37.3,37.6,5.7-1.9,13.1-8.3,16-13.8,3.1-5.9,3.2-20.3,0-26.1-2.7-5.1-8.6-10.7-14-13.4C568.6-847.2,559.2-848.4,554.5-847.1Z" transform="translate(2231.001 2204.5)"/>
    <path id="Path_5" data-name="Path 5" d="M343.5-741.3c-3.3.9-5.5,3.4-5.5,6.3,0,4.5,2.7,6,10.6,6,10.5,0,16.7,2.2,22.5,8,6.5,6.5,8.3,12.6,8.2,28-.1,12.8.7,15,5.8,15,5.8,0,7.9-4.6,7.9-17.6,0-20.9-9.9-37.1-26.4-43.3C361.1-740.9,347.3-742.4,343.5-741.3Z" transform="translate(2231.001 2204.5)"/>
    <path id="Path_12" data-name="Path 12" d="M907.7-849.5a26.891,26.891,0,0,0-15,14.3c-11,23.6,9.2,47.7,34.1,40.7,25.5-7.2,27.9-42.5,3.7-54C924.3-851.4,914.2-851.8,907.7-849.5Z" transform="translate(2231.001 2204.5)"/>
    <path id="Path_354" data-name="Path 354" d="M42.23-69.162c18.7,0,155.266-12.237,171.7,3.121,16.185,15.125,42.734,68.033,3.957,100.373S96.378,63.318,58.822,63.318-19.9,13.264-19.9-4.133,4.675-69.162,42.23-69.162Z" transform="translate(2837.135 1524)" fill="#7084f7"/>
    <path id="Path_355" data-name="Path 355" d="M170.532-114.152c10.4,0,5.947,44.406-10.7,60.991-12.936,12.886-39.14-2.377-31.843,4.442,10.18,9.514,19.887,67.939,18.586,112.687-.761,26.168-11.594,48.014-11.594,51.254,0,17.4-58.822-12.533-96.378-12.533-19.829,0-68.287-74.056-57.356-132.949,9.747-52.512,78.073-90.017,78.073-98.228,0-2.44-74.732-8.252-62.426-38.892,11.945-35.241,66.849,4.989,71.533,0,6.941-7.394-61.262-90.306,15.685-119.908,71.235-1.972,38.834,99.223,47.373,101.339,4.82,1.194,44.646-47.33,97.029-83.732C260.775-292.1,301.2-306.4,331.217-311.824c26.14-4.72,65.521,6.66,80.72,24.538,19.281,22.677,10.683,54.578,12.831,59.263.818,1.784,61.5-20.982,105.968-16.7,28.861,2.782,43.69,30.975,54.873,37.241,16.329,9.149,20.581,74.135-6.114,86.407-3.018,1.387-37.241,53.255-62.8,53.567-17,.208-26.939-49.612-32.36-53.567-14.4-10.505,34.638-38.349,32.36-36.754-5.156,3.612-17.441,19.624-38.688,29.337-24.95,11.407-60.766,16.526-86.966,17.966-51.154,2.812-84.571-28.557-99.457-22.047-16.075,7.03-25.915,22.51-43.036,25.361C209.881-100.766,167.874-114.152,170.532-114.152Z" transform="translate(2548.046 1315.629)" fill="#ebd292"/>
    <path id="Path_373" data-name="Path 373" d="M21.5,0C33.374,0,43,6.492,43,14.5S33.374,29,21.5,29,0,22.508,0,14.5,9.626,0,21.5,0Z" transform="translate(2859 1456)" fill="#fff"/>
    <path id="Path_353" data-name="Path 353" d="M68-12.82c18.7,0,44.107,8.189,60.541,23.547,16.185,15.125,23.324,37.454,23.324,46.188,0,17.4-55.488,6.4-93.043,6.4S.045,28.124.045,10.727,30.445-12.82,68-12.82Z" transform="translate(2825 1524)" fill="#faa5d5"/>
    <path id="Path_372" data-name="Path 372" d="M21.5,0C33.374,0,43,6.492,43,14.5S33.374,29,21.5,29,0,22.508,0,14.5,9.626,0,21.5,0Z" transform="translate(2989 1450)" fill="#fff"/>
    <path id="Path_4" data-name="Path 4" d="M767.5-758.5a475.024,475.024,0,0,1-76.5,2.6c-45.7-2.5-46-2.5-54.9-.7-11.3,2.3-17.7,4.9-26.3,10.5-12.7,8.2-22.2,20.8-27.4,36.1-2.7,7.7-2.7,29.9,0,38.5,7.7,25,25.2,42.8,53.1,54.1,19.1,7.7,39.5,10.7,72.5,10.7,32.4,0,54.9-3.2,77.4-11,31.6-10.9,53.8-32.5,60.7-59.1,2.5-9.7,2.8-26.6.5-37.2-4-18.9-16.7-35.5-32.1-42-7.6-3.2-8.6-3.4-22-3.6A194.985,194.985,0,0,0,767.5-758.5Zm25.3,15.6c-.9,8.6-6.7,14.3-14.6,14.3-8.4,0-16.2-6.7-16.2-14v-3.2l6.8-.7c3.7-.3,7.4-.8,8.2-.9a85.9,85.9,0,0,1,8.9-.5l7.4-.1ZM663-745.1c2.2.7,2.5,1.2,2.3,5.3-.1,5.6-1.3,8-5.8,11.3-9.4,7.3-22.7,1.6-25-10.6-.8-4.1-.1-4.9,5.5-6C644.6-746,659.8-746,663-745.1Zm151.8,4.2c12.8,8.5,20.2,25,20.2,44.8-.1,34.3-23.8,59.5-65.7,69.6-16.6,4-15.3,3.9-15.3.8-.1-13.3-10.6-35.7-22.4-47.5-24.4-24.5-64.1-33.9-102.8-24.4-10.1,2.6-26.1,9.1-30.5,12.6-4.6,3.6-5.3,2.8-5.3-5.8a66.136,66.136,0,0,1,1.1-12.2c1.5-6.8,7.4-17.9,12.4-23.7,4.9-5.6,14.5-12.2,14.5-10,0,3.4,6.4,13.9,10.5,17.2,9.4,7.8,20.4,9.1,31.2,3.9,8.4-4,16.3-15.8,16.3-24.2v-2.7h70v3c0,1.6,1.3,5.3,2.9,8.1,10.2,17.7,31.6,21.1,45.9,7.1,4.4-4.3,8.2-12.5,8.2-17.7C806-746,807.5-745.8,814.8-740.9ZM683.8-685c22.9,5.8,41,19.7,50.3,38.5,4.5,9.1,7.9,23.9,5.9,25.9s-54.2,1.4-68-.7c-14.2-2.2-28.5-6-36.6-9.7-8.1-3.6-19.9-11.7-25-17.2-4.2-4.4-11.6-14.9-12.7-18.1-1.3-3.7,17.3-14.3,31.4-17.8C646-688.4,669.1-688.8,683.8-685Z" transform="translate(2231.001 2204.5)"/>
    <path id="Path_356" data-name="Path 356" d="M74.339,55.083c18.2,8.7-16.844,1.474-38.606,1.859S15.163,67.381,4.9,66.819c-10.352-.566-.783-18.029,12.408-22.752C29.837,39.582,55.345,46,74.339,55.083Z" transform="translate(2537.627 1092)" fill="#f7e79b"/>
    <path id="Path_357" data-name="Path 357" d="M4.9,66.819c-10.352-.566-.783-18.029,12.408-22.752,5.249-1.879,15.286-9.715,23.955-8.324,3.671.589,24.077,4.084,31.525,25.945,8.578,25.179,3.91,69.526,2.045,73.033-.7,1.335-9.307-56.165-28.5-75.725C32.228,44.624,6.391,66.9,4.9,66.819Z" transform="translate(2601.627 994)" fill="#f7e79b"/>
    <path id="Path_361" data-name="Path 361" d="M0,0,3.3,0a67.9,67.9,0,0,1,13.89,1.19v2l5,1,1,4C16.263,14.452,9.66,15.577.563,16.75l-2.793.381a277.948,277.948,0,0,1-36.7,2.225l-4.65.01q-4.865.009-9.73.007-4.891,0-9.781.021c-16.355.068-32.675.012-49-1.03l-3.524-.21a60.47,60.47,0,0,1-18.191-3.966c1.717-3.852,1.717-3.852,4.264-5.187C-89.945-2.76-40.974.028,0,0Z" transform="translate(2951.051 2066.313)" fill="#446f62"/>
    <path id="Path_362" data-name="Path 362" d="M216.784-257.87l52.906,22.122S291.9-71.75,439.777-79.611,651.76-217.049,651.76-217.049l34.014-30.292s107.257,35.664,180.135,129.247S977.283,126.994,977.283,126.994s-47.482,33.5-102.672,54.328-118.086,29-118.086,29l12.321,52.531H111.672l9.13-55.773L-7.068,179.711l-94.06-56.812S-64.139-26.477,15.339-121.669,216.784-257.87,216.784-257.87Z" transform="translate(2427 1938)" fill="#488469"/>
    <path id="Path_370" data-name="Path 370" d="M216.784-257.87l52.906,22.122S150.285-208.83,65.961-112.633-67.605,149.039-67.605,149.039L-101.128,122.9S-64.139-26.477,15.339-121.669,216.784-257.87,216.784-257.87Z" transform="translate(2427 1938)" fill="#71c798"/>
    <path id="Path_371" data-name="Path 371" d="M-11.1-245.16-50.73-221.273S18.277-208.83,102.6-112.633,236.167,149.039,236.167,149.039L269.689,122.9S232.7-26.477,153.223-121.669-11.1-245.16-11.1-245.16Z" transform="translate(3134.594 1938)" fill="#71c798"/>
    <path id="Path_363" data-name="Path 363" d="M1101.3,1208.66l-1-5.3c-.275-1.544-.927-5.093-1.687-9.229l-.212-1.156-.034-.186-.113-.617-.14-.765c-.446-2.421-1-5.435-1.513-8.247-3.452-19.622-9.6-48.3-14-65.3-.958-3.78-2.021-7.87-2.723-10.576l-.085-.328v-.006l-.013-.048-.027-.1-.011-.041c-.715-2.753-1.391-5.353-1.64-6.4-.51-2.04-1.408-3.7-2-3.7s-2.822,1.247-5.2,2.9c-4.748,3.228-15.394,8.817-28.475,14.95-13.427,6.295-26.813,11.962-36.725,15.549-.949.345-24.871,9.3-53.692,16.6-24.4,6.182-54.321,10.668-70.907,13-1.253.176,12.037,48.37,12.037,48.37s-8.652.035-12.145,0c-1.679-.016-14.04-50.524-28.229-101.436-13.038-46.781-28.091-93.678-27.224-107.019.246-3.789,7.287-3.022,8-3.278,2.675-.961,13.812,37.874,24.482,76.71,10.621,38.659,20.779,77.319,21.667,76.72,8.672-5.864,53.042-10.122,96.819-24.583,49.531-16.362,98.689-42.794,100.6-44.091,6.048-4.032,9.274-6.223,10.775-8.087,1.486-1.844,1.381-3.415,1.025-6.512-.8-6.994-6.536-26.265-15.35-51.55-8.809-25.27-18.808-51.159-26.75-69.25-6.743-15.048-24.006-48.544-33.1-63.5a548.6,548.6,0,0,0-31.058-46.3,450.3,450.3,0,0,0-33.655-39.937,382.708,382.708,0,0,0-36.3-33.617A342,342,0,0,0,873.7,734.96c-7.052-4.269-16.473-9.374-26.526-14.374-9.933-4.942-19.619-9.355-27.274-12.425l-2.376-.939-.334-.131-1.533-.606-.206-.082-.1-.041-.413-.163-.09-.036-.074-.029c-4.914-1.941-8.795-3.475-8.871-3.475-.1,0-1.644,2.794-3.6,6.5-.755,1.51-12.5,19.808-32.758,23.46-14.106,25.938-88.732,150.371-217.655,141.073C413.049,863.681,385.75,739.921,383.1,713.38c-18.065,2.26-37-12.819-38.6-14.42-3.548-3.652-6.415-6.2-6.972-6.2l-.028,0c-.423.106-1.929.509-3.3.9-.569.163-1.94.594-3.838,1.191l-.042.013-.011,0-.2.062-.038.012-.093.03-.154.048-.033.011c-2.7.85-6.4,2.012-10.1,3.131a313.909,313.909,0,0,0-39,15.526,377.9,377.9,0,0,0-39,21.074c-8.311,5.221-16.528,10.845-24.422,16.717-7.909,5.881-15.734,12.189-23.257,18.746s-14.972,13.565-22.117,20.809-14.215,14.951-21,22.9-13.487,16.373-19.917,25.033c-6.416,8.643-12.76,17.791-18.855,27.193-6.079,9.379-12.074,19.265-17.818,29.387C88.573,905.653,82.917,916.289,77.5,927.16c-10.172,20.343-23.9,51.992-28.8,66.4-.6,1.67-1.342,3.758-2,5.6l-.185.523-.28.788-.044.124-.01.027-.038.1c-1.416,3.986-3.179,8.948-4.446,12.433-6.2,16.8-16.6,52.589-15.9,54.7.119.378,2.213,2.185,6.623,5.369,3.444,2.488,9.3,6.53,17.633,11.668a401.839,401.839,0,0,0,59.45,30.161,558.15,558.15,0,0,0,67.488,22.051c10.777,2.769,20.687,4.945,29.457,6.465a133.7,133.7,0,0,0,21.639,2.336c6.266,0,9.738-1.054,10.319-3.133.618-2.218,29.928-100.891,43.664-133.3,2.644-4.52,11.826.887,11.28,3.677-7.4,31.907-27.151,75.35-40.887,123.95s-14.056,70.451-14.056,70.451H224.2c0-1.346,8.691-40.371,10-44.9.511-1.94.6-3.7.2-4.1-.4-.3-5.491-1.087-11.6-1.8-16.51-1.84-38.115-6.133-60.837-12.088-22.764-5.966-44.77-13.109-61.963-20.112-15.441-6.3-41.049-18.83-51.7-25.3-4.9-2.922-9.227-5.212-9.843-5.212a.1.1,0,0,0-.057.012c-.511.557-3.161,10.169-6.75,24.488-3.694,14.737-7.315,30.183-9.45,40.312-2.444,11.725-9,47.177-9,49.1,0,.392-2.9.7-6.6.7H0l.6-2.8c.315-1.582,1.763-10.087,3.1-18.2,3.8-23.471,4.459-26.532,14.2-65.5,2.462-9.748,4.882-19.813,5.4-22.3.494-2.375,1.489-6.465,2.3-9.2l1.5-4.9-5.4-4a36.2,36.2,0,0,1-5.423-4.811,12.191,12.191,0,0,1-2.714-4.8,16.368,16.368,0,0,1-.371-6.095,65.153,65.153,0,0,1,1.607-8.692c2.211-9.249,9.325-33.07,12.9-43.2a830.79,830.79,0,0,1,35.175-85.688A601.756,601.756,0,0,1,103.3,856.36c9.084-13.625,18.427-26.5,27.771-38.273,9.4-11.841,19.167-23.024,29.029-33.239a396.062,396.062,0,0,1,30.753-28.683,375.677,375.677,0,0,1,32.947-24.6c22.593-15.03,28.943-18.772,45.3-26.7,21.814-10.408,55.229-23.2,60.6-23.2a2.018,2.018,0,0,0,1.837-.836c.462-.747.342-1.906-.337-3.263-2.3-4.28-4.281-16.088-5.288-31.588-1.008-15.517-.826-31.447.488-42.612.783-6.366,1.1-12,.7-12.3a.7.7,0,0,0-.348-.069,13.459,13.459,0,0,0-4.451,1.57,71.542,71.542,0,0,1-11.8,4.3c-5.171,1.456-14.4,2.361-24.086,2.361-8.47,0-15.838-.679-20.214-1.86a96.19,96.19,0,0,1-26.476-11.414,88.706,88.706,0,0,1-20.861-18.174,92.147,92.147,0,0,1-14.467-24,106.208,106.208,0,0,1-7.3-28.908,89.352,89.352,0,0,1,1.267-27.786,91.618,91.618,0,0,1,9.4-25.677,90.229,90.229,0,0,1,16.465-21.645A85.736,85.736,0,0,1,246.7,424.06c3.685-1.843,7.485-3.4,8.3-3.4a1.569,1.569,0,0,0,1.48-.676c.714-1.234-.293-4.186-3.079-9.024-6.775-11.613-13.963-25.538-20.237-39.212s-11.2-26.142-13.863-35.087a113.3,113.3,0,0,1-3.948-17.927,83.317,83.317,0,0,1-.564-16.81,82.356,82.356,0,0,1,2.867-16.492A109.721,109.721,0,0,1,224,268.46a125.927,125.927,0,0,1,6.555-12.384,123.965,123.965,0,0,1,8.383-12.065c6.222-7.971,14.44-16.968,28.363-31.051l17.1-17.1-5.9-1.1c-15.916-3.017-26.4-6.051-34-9.837a38.849,38.849,0,0,1-9.706-6.63,31.37,31.37,0,0,1-6.294-8.533c-2.822-5.395-3.82-10.355-3.05-15.162s3.3-9.488,7.75-14.337a39.983,39.983,0,0,1,9.9-7.3c4.634-2.271,6.2-2.716,13.777-2.716.769,0,1.691.005,2.822.016,9.087.1,12.55.616,19.5,2.9a126.462,126.462,0,0,1,12.3,4.6,10.128,10.128,0,0,0,3.444,1.337c.169,0,.256-.046.256-.137,0-.454-1.374-5.086-3.5-11.8a161.646,161.646,0,0,1-6.937-33.674c-1.058-11.169-.734-21.31.937-29.326a54.3,54.3,0,0,1,6.207-16.205A48.771,48.771,0,0,1,302.145,35.6a44.445,44.445,0,0,1,13.088-7.88,40.986,40.986,0,0,1,14.76-2.767,40.509,40.509,0,0,1,9.859,1.224A42.871,42.871,0,0,1,349.6,29.96a45.86,45.86,0,0,1,15.363,13.25A60.371,60.371,0,0,1,374.4,63.36c1.864,6.771,2.1,10.067,2.1,29.4-.091,10.924-.373,22.52-.8,23.8-.288.942-.316,1.579-.083,1.894a.578.578,0,0,0,.495.221c1.054,0,3.272-1.682,6.089-4.614,5.723-5.921,26.5-24.566,39-35a567.272,567.272,0,0,1,46.513-35.287c7.26-4.868,14.278-9.237,21.451-13.355,7.061-4.055,14.106-7.77,21.535-11.358A235.144,235.144,0,0,1,540.862,6.785,154.974,154.974,0,0,1,568.4.661,131.148,131.148,0,0,1,583,0c11.444,0,22.778.828,28.2,2.06a90.117,90.117,0,0,1,17.888,6.85A85.374,85.374,0,0,1,645.4,19.06a72.13,72.13,0,0,1,11.3,12.212,91.4,91.4,0,0,1,9.2,15.288,83.4,83.4,0,0,1,5.075,15.262A70.737,70.737,0,0,1,673.2,76.86c0,2.647.493,4.8,1.1,4.8s7.1-1.832,14.2-4a292.212,292.212,0,0,1,34.275-7.937A190.776,190.776,0,0,1,753.3,66.66c9.709,0,28.282,3.633,36.8,7.2a86.228,86.228,0,0,1,41.738,37.025,84.025,84.025,0,0,1,9.548,25.975,79.882,79.882,0,0,1,.314,28c-3.424,20.138-7.977,30.7-20.3,47.1a129.763,129.763,0,0,1-21.863,22.375A173.84,173.84,0,0,1,770.7,253.26c-5.2,2.705-9.106,4.805-9.2,4.9-.214.107,2.338,6.062,4.8,11.6a449.914,449.914,0,0,1,20.3,54.9c9.967,33.893,20.787,90.613,22.7,119,.5,8.55,1.4,17.3,2,19.5,2.784,11.723,4.446,20.229,5.737,29.363,1.31,9.267,2.343,19.882,3.563,36.637.752,10.551,1.131,23.194,1.128,37.578,0,13.486-.358,28.172-1.028,42.472s-1.65,28.083-2.829,39.847a272.356,272.356,0,0,1-4.271,29.7c-.26,1.155-.506,2.214-.735,3.2l-.038.162-.006.025c-2.13,9.125-2.13,9.125,5.316,11.952l.118.045.022.008.047.018.027.01c.757.287,1.615.613,2.55.981,16.853,6.582,23.388,9.494,36.8,16.4a169.163,169.163,0,0,1,15.84,7.814c6.4,3.523,13.125,7.565,19.986,12.011a336.858,336.858,0,0,1,42.826,32.675c7.475,6.827,15.07,14.4,22.572,22.5,6.112,6.6,12.192,13.585,18.072,20.759,10.723,13.081,17.47,22.776,18.2,23.839,9.529,13.764,17.518,25.773,24.422,36.716,7.249,11.487,13.562,22.2,19.3,32.76s11.071,21.25,16.266,32.647c4.964,10.893,9.972,22.792,15.309,36.378,7.029,17.808,15.057,40.49,21.476,60.675,6.4,20.132,10.225,34.684,10.225,38.925,0,5.946-1.862,9.266-8.3,14.8l-5.3,4.5,5.3,20.8c2.938,11.543,6.212,25.36,7.3,30.8,2.791,13.568,9.679,49.573,11,57.5.4,2.4.861,5.035,1.084,6.3l.015.089.008.043.013.077c.2,1.14.316,1.815.379,2.189.18.789.277,1.333,0,1.678-.456.572-1.9.623-5.9.623ZM551.886,858.5c101.034,7.381,161.46-69.212,185.538-108.374C727.1,759.778,714.266,766.489,713,767.16a155.006,155.006,0,0,1-16.7,7.465c-6.018,2.292-12.6,4.428-19.561,6.348A362.477,362.477,0,0,1,628.7,790.36c-8.924,1.2-26.9,1.95-46.924,1.95s-36.91-.748-44.076-1.95c-14.131-2.388-26.394-6.072-36.45-10.949s-17.773-10.882-22.95-17.851l-3.4-4.6-7.1,3a47.957,47.957,0,0,1-18.809,3.633A65.165,65.165,0,0,1,420.7,756.76a100.355,100.355,0,0,1-16.571-12.433C422.016,787.79,463.252,852.025,551.886,858.5ZM478.1,722.26a11,11,0,0,1,2.1,6.1c0,4.78,2.673,14.645,5.5,20.3,1.522,3.046,4.875,7.045,9.2,10.975a56.834,56.834,0,0,0,12.8,9.025c7.708,3.68,17.941,6.481,30.412,8.325A311.114,311.114,0,0,0,582.7,779.76c33.585,0,65.343-3.894,91.838-11.263,26.528-7.377,46.329-17.833,57.263-30.237,6.189-6.989,13-21.089,15.5-32.1,1.155-5.25,2.316-10.15,2.7-11.4a4.485,4.485,0,0,1,2.131-2.587,7.293,7.293,0,0,1,3.657-.945,7.8,7.8,0,0,1,3.312.732,4.584,4.584,0,0,1,2.135,2.3,10.732,10.732,0,0,1,.841,4.078A40.036,40.036,0,0,1,759.8,711.16c-1.4,4.3-2.3,8.2-2,8.7.337.524,1.8.813,4.118.813A37.421,37.421,0,0,0,772.6,719.06c3-1.047,7.015-3.8,11.025-7.563A49.8,49.8,0,0,0,793,699.96a75.019,75.019,0,0,0,5.427-14,175.5,175.5,0,0,0,4.31-19.583c2.516-15.01,4.3-33.725,5.463-57.212,1.278-25.817,1.33-52.046.15-75.85-1.184-23.893-3.519-43.483-6.75-56.65a107.968,107.968,0,0,0-8.063-21.974A87.653,87.653,0,0,0,781.5,436.16c-8.064-9.374-22.447-19.719-34.2-24.6a161.39,161.39,0,0,0-27.725-8.375A196.374,196.374,0,0,0,689,399.16c-13.211-.625-21.307-.943-28.9-.943-5.708,0-11.084.177-17.4.444-18.149.789-29.364,1.933-50,5.1a240.749,240.749,0,0,0-32.322,7.091,146.465,146.465,0,0,0-26.978,11.01,151.13,151.13,0,0,0-24.428,16.409A260.406,260.406,0,0,0,484.3,461.561a224.6,224.6,0,0,1-16.943,16.5A97.6,97.6,0,0,1,452.4,488.9a57.682,57.682,0,0,1-14.282,5.948,58.349,58.349,0,0,1-14.918,1.814,52.4,52.4,0,0,1-17.2-2.636,43.045,43.045,0,0,1-14.328-8.252,62.3,62.3,0,0,1-12.04-14.383A126.244,126.244,0,0,1,369.3,450.36c-1.19-2.837-2.579-5.7-3-5.7a61.366,61.366,0,0,0-6.5,3c-4.274,2.187-7.283,3-11.1,3-4.929,0-5.851-.438-14.1-6.7-8.477-6.293-15.463-10.206-22.65-12.687-7.24-2.5-14.873-3.613-24.75-3.613a91.028,91.028,0,0,0-17.962,1.5,61.9,61.9,0,0,0-15.038,5.1,78.549,78.549,0,0,0-14.538,8.925,76.742,76.742,0,0,0-12.062,11.7,77.923,77.923,0,0,0-9.288,14.138A82.113,82.113,0,0,0,212.1,485.26c-3,11.183-3,30.716,0,41.8a88.222,88.222,0,0,0,6.112,16.219,84.007,84.007,0,0,0,8.963,14.306,79.137,79.137,0,0,0,11.475,11.944A74.4,74.4,0,0,0,252.3,578.66a66.869,66.869,0,0,0,16.25,6.175,80.293,80.293,0,0,0,18.35,1.825,88.185,88.185,0,0,0,17.158-1.6,68.417,68.417,0,0,0,15.1-4.837,63.656,63.656,0,0,0,13.173-8.117A72.88,72.88,0,0,0,343.7,560.66c4.573-5.692,6.124-7,8.3-7a6.648,6.648,0,0,1,5.668,2.71,6.234,6.234,0,0,1,.432,5.89c-.539,1.564-3.427,5.546-5.95,8.751a75.857,75.857,0,0,1-7.75,8.75c-1.5,1.31-2.929,7.756-4.013,18.15C339.3,608.349,338.7,621.4,338.7,634.66c0,20.4.215,23.248,2.3,30.5,3.236,11.025,8.639,20.834,14.1,25.6,6.388,5.719,12.162,8.383,18.171,8.383a23.129,23.129,0,0,0,6.53-.983c2.519-.734,3.774-1.169,4.549-1.8.806-.655,1.054-1.525,1.25-3,1.425-9.261,2.219-13.891,3.338-16.325a4.038,4.038,0,0,1,2.076-2.265,8.607,8.607,0,0,1,3.286-.409,6.2,6.2,0,0,1,4.971,1.992c1.269,1.526,1.66,3.847,1.13,6.709-.416,2.281-.7,10.5-.6,17.6,0,8.484.483,13.437,1.725,17.663,1.407,4.79,3.925,8.756,7.275,13.237a42.318,42.318,0,0,0,7.942,7.963,52.891,52.891,0,0,0,9.959,6.052,56.36,56.36,0,0,0,11.07,3.846,49.7,49.7,0,0,0,11.273,1.347,35.827,35.827,0,0,0,12.556-2.108c4-1.517,5.951-2.326,6.713-4.1.755-1.76.3-4.423-.713-9.8-1.8-8.995-1.8-9.105.3-11.9a8.313,8.313,0,0,1,2.581-2.336,5.856,5.856,0,0,1,2.886-.787h0A6.019,6.019,0,0,1,478.1,722.26ZM418.416,214.867c-.284.335-.172,1.318.184,3.393,2.711,15.36,1.574,26.754-3.8,38.1a50.706,50.706,0,0,1-12.063,16,46.523,46.523,0,0,1-16.937,9.7c-3.193,1.03-5.6,2.319-5.6,3s.878,5.3,2,10.5c3.57,16.169,8.8,47.256,10,59.4a216.505,216.505,0,0,1,.713,28.275c-.357,10.2-1.273,18.59-2.513,23.025a77.51,77.51,0,0,1-10.1,22.8c-1.738,2.558-3.1,5.106-3.1,5.8,0,1.733,5.921,16.745,9.9,25.1a48.667,48.667,0,0,0,8.525,12.4A40.522,40.522,0,0,0,407,480.86c5.466,2.733,6.986,3.219,13.837,3.219.767,0,1.624-.005,2.864-.019a49.758,49.758,0,0,0,11.872-1.186,37.689,37.689,0,0,0,10.878-4.551,85.422,85.422,0,0,0,12.378-9.409c4.359-3.85,9.408-8.709,16.372-15.754,11.8-11.9,20.132-19.659,27.875-25.937A161.914,161.914,0,0,1,527.2,410.96a152.372,152.372,0,0,1,25.012-10.374A235.086,235.086,0,0,1,582.7,392.76a453.357,453.357,0,0,1,79.086-6.823c22.563,0,43.108,1.668,59.414,4.823a153.8,153.8,0,0,1,22.175,5.969A121.221,121.221,0,0,1,762.7,405.51a105.1,105.1,0,0,1,16.55,11.631A103.211,103.211,0,0,1,793.1,431.66c.909,1.275,1.908,1.963,2.386,1.963a.355.355,0,0,0,.214-.063c.329-.374-.61-7.751-2.45-19.249-1.863-11.638-4.181-24.531-6.05-33.65-2.6-12.857-5.753-25.98-9.382-39-3.577-12.839-7.628-25.64-12.044-38.047-4.405-12.379-9.176-24.372-14.181-35.647-5.061-11.4-10.373-22.1-15.793-31.8-8.728-15.593-20.981-34.292-23-35.1a.848.848,0,0,0-.319-.046c-1.13,0-4.42,1-8.382,2.546a177.455,177.455,0,0,1-35.812,9.78,236.94,236.94,0,0,1-39.6,3.248c-30.867,0-60.979-5.657-84.791-15.928-4.81-2.117-9.488-4-9.8-4-.329,0-1.813,1.414-3,2.6-4.222,4.523-16.505,12.1-24.8,15.3-11.382,4.378-20.877,5.93-36.286,5.93-2.56,0-5.279-.042-8.314-.13-7.88-.242-16.92-.953-24.8-1.95-8.149-1.032-14.293-2.257-17.3-3.45a2.51,2.51,0,0,0-.847-.23A.412.412,0,0,0,418.416,214.867ZM314.792,418.97A78.079,78.079,0,0,1,338.2,431.06c6.144,4.662,8.514,6.293,10.968,6.293a11.148,11.148,0,0,0,3.131-.593,23.218,23.218,0,0,0,7.175-3.8,39.853,39.853,0,0,0,6.8-6.672A62.28,62.28,0,0,0,376.8,406.661c2.818-8.355,2.9-9.21,2.9-30.5,0-23.309-.729-30.049-6.5-60.1-1.576-8.072-4.761-22.337-7.1-31.8-3.412-13.648-3.992-17.219-3.1-19.1a5.836,5.836,0,0,1,5.487-3.262,7.717,7.717,0,0,1,4.01,1.14,6.868,6.868,0,0,1,2.8,3.322c.924,2.513,1.683,3.633,3.732,3.633a16.333,16.333,0,0,0,3.468-.534,25.151,25.151,0,0,0,8.917-4,33.155,33.155,0,0,0,7.445-7.258A41.709,41.709,0,0,0,406.9,237.26c.6-6.78-.882-18.444-3.3-26-1.3-3.691-1.413-5.373-.5-7.2,1.245-2.864,2.785-3.879,5.884-3.879,2.229,0,5.392.544,10.916,1.879a198.683,198.683,0,0,0,23.512,4.376,191.9,191.9,0,0,0,23.288,1.225c.456,0,.943,0,1.53,0,10.953,0,18.237-.572,24.355-1.915A58.035,58.035,0,0,0,510.2,198.56a61.525,61.525,0,0,0,8.363-5.575,42.762,42.762,0,0,0,6.037-6.625c2.869-3.382,4.635-4.7,6.3-4.7,1.339,0,6.369,1.891,11.7,4.4a164.309,164.309,0,0,0,28.463,10.563A223.306,223.306,0,0,0,604.1,202.76a194.657,194.657,0,0,0,19.9.846c17.005,0,35.168-1.305,45.2-3.246a195.2,195.2,0,0,0,22.61-5.788,156.775,156.775,0,0,0,20.416-8.187,158.762,158.762,0,0,0,19.1-11A201.515,201.515,0,0,0,750,161.16c2.78-2.4,5.864-4.5,6.6-4.5a9.474,9.474,0,0,1,4,2.1c1.769,1.4,2.653,2.813,2.7,4.322a6.319,6.319,0,0,1-1.266,3.659A24.47,24.47,0,0,1,758,171.16c-8.024,7.2-19.688,15.9-26,19.4-3.267,1.839-5.8,3.821-5.8,4.3,0,.6,2.183,4.576,5,8.8,7.447,11.715,18.954,31.8,21.6,37.7,1.333,2.972,2.607,5.3,2.9,5.3a80.856,80.856,0,0,0,7.8-3.6,145.057,145.057,0,0,0,38.838-28.437c10.883-11.29,18.788-23.588,22.863-35.563,2.972-8.718,3.4-11.354,3.8-23.5.393-11.418.124-14.708-1.8-22a71.773,71.773,0,0,0-16.312-30.35A69.271,69.271,0,0,0,798.02,92.1,66.092,66.092,0,0,0,782.8,84.56a84.513,84.513,0,0,0-14.926-3.8A107.9,107.9,0,0,0,751,79.66a172.083,172.083,0,0,0-32.1,3.088A278.709,278.709,0,0,0,682,92.66c-7.657,2.582-14.757,4.53-16.516,4.53a1.027,1.027,0,0,1-.284-.03,4.534,4.534,0,0,1-3.487-3.613c-.658-2.3-.869-6.177-1.013-12.088-.5-17.183-4.154-29.177-12.6-41.4a57.632,57.632,0,0,0-7.9-9.173,64.224,64.224,0,0,0-9.828-7.59,70.743,70.743,0,0,0-11.441-5.808A76.771,76.771,0,0,0,606.2,13.66,102.925,102.925,0,0,0,586.658,12.1a170.3,170.3,0,0,0-17.3.887A104.407,104.407,0,0,0,554.2,15.56c-31.933,8.483-61.629,24.446-102.5,55.1C432.78,84.849,419.793,96,393.8,120.36c-9.609,9-15.682,14.663-19.288,17.657-3.566,2.962-4.888,3.483-6.346,3.483-.211,0-.448-.013-.766-.04-2.112-.159-3.509-.748-4.4-1.852a6.9,6.9,0,0,1-1.248-3.933,32.86,32.86,0,0,1,.444-6.715c.632-3.89,1.41-17.079,1.7-28.8.5-18.239.31-23.353-1.1-30.4-4.085-20.326-15.943-31.983-32.535-31.983-.815,0-1.644.028-2.465.084-7.458.5-13.655,3.357-19.5,9a33.129,33.129,0,0,0-9,15.75c-1.687,6.382-2.259,14.437-1.8,25.349.4,11.745,1.087,16.456,4.1,28,1.963,7.75,5.473,18.491,7.6,24,2.326,5.964,3.478,9.171,3.738,11.263.256,2.056-.329,3.03-1.737,4.438a5.6,5.6,0,0,1-4.2,1.856c-2.234,0-5.255-1.123-10.1-3.756a107.651,107.651,0,0,0-20.084-8.664,59.639,59.639,0,0,0-17.207-2.888,26.545,26.545,0,0,0-12.642,2.738,15.258,15.258,0,0,0-7.267,8.214c-1.49,3.778-1.608,5.174-.7,8.3a17.543,17.543,0,0,0,5.512,8.078,37.84,37.84,0,0,0,10.912,6.3c9.1,3.617,21.442,5.88,36.675,6.726,12.386.7,13.522.928,15.2,3a8.612,8.612,0,0,1,1.9,4.7c0,1.3-.076,1.952-1.887,3.787s-5.171,4.667-12.613,10.912c-13.047,10.857-37.125,35.734-45.2,46.7a138.253,138.253,0,0,0-14.781,24.363,74.922,74.922,0,0,0-6.569,23.238A80.611,80.611,0,0,0,229.532,324,163.647,163.647,0,0,0,238.6,352.86c3.254,8.185,8.164,18.763,13.825,29.787,5.585,10.872,11.4,21.211,16.375,29.112l2.2,3.6,12.4-.4c1.349-.05,2.695-.076,4-.076A90.126,90.126,0,0,1,314.792,418.97Z" transform="translate(2308 993)"/>
    <text id="_chucknorris_color:_BADA55_" data-name="#chucknorris {
   color: #BADA55;
}" transform="translate(2739 2036)" fill="#fff" font-size="30" font-family="CourierNewPS-BoldMT, Courier New" font-weight="700"><tspan x="0" y="0" fill="#d8ff00">#chucknorris</tspan><tspan y="0" fill="#000"> </tspan><tspan y="0" fill="#fff">{</tspan><tspan x="0" y="34" xml:space="preserve" fill="#000">   </tspan><tspan y="34" fill="#00f5ff">color</tspan><tspan y="34" fill="#fff">:</tspan><tspan y="34" fill="#000"> </tspan><tspan y="34" fill="#333">#BADA55</tspan><tspan y="34" fill="#fff">;</tspan><tspan x="0" y="68">}</tspan></text>
  </g>
</svg>
